<svg width="252" height="71" viewBox="0 0 252 71" fill="none" xmlns="http://www.w3.org/2000/svg">
<g clip-path="url(#clip0_401_454)">
<path d="M0 25.448H13.2208C16.9984 25.448 27.1682 27.1915 27.1682 39.9001C27.1682 52.6087 16.9984 54.3503 13.2208 54.3503H9.44313V67.4226C9.44423 68.13 9.69233 68.8147 10.1445 69.3584C10.5967 69.902 11.2245 70.2703 11.9193 70.3996L12.9305 70.6247H0L1.01698 70.4073C1.71071 70.2768 2.33717 69.908 2.78819 69.3645C3.23921 68.8209 3.48649 68.1368 3.48734 67.4303V28.7175C3.48915 28.0022 3.24437 27.3081 2.79433 26.7525C2.34429 26.1968 1.71653 25.8135 1.01698 25.6674L0 25.448ZM9.44313 53.4073H12.6402C17.2156 53.4073 21.1394 48.0325 21.1394 39.9001C21.1394 31.7677 17.2156 26.3197 12.6402 26.3197H9.44313V53.4073Z" fill="#F5F2EB"/>
<path d="M81.347 63.5045L80.4031 70.6247H54.6882L55.7052 70.4073C56.3986 70.2764 57.0246 69.9074 57.4753 69.3639C57.9259 68.8204 58.1729 68.1366 58.1737 67.4303V28.7175C58.1756 28.0025 57.9311 27.3086 57.4814 26.753C57.0317 26.1973 56.4044 25.8139 55.7052 25.6674L54.6882 25.448H67.6168L66.6017 25.6674C65.9022 25.8135 65.2744 26.1968 64.8244 26.7525C64.3743 27.3081 64.1296 28.0022 64.1314 28.7175V66.6951C64.1351 67.101 64.219 67.5021 64.3782 67.8753C64.5373 68.2486 64.7686 68.5867 65.0588 68.8701C65.3489 69.1536 65.6922 69.3768 66.0688 69.527C66.4455 69.6772 66.8481 69.7514 67.2534 69.7453H74.5915C75.9148 69.7397 77.204 69.3252 78.2831 68.5585C79.3622 67.7918 80.1784 66.7102 80.6203 65.4616L81.347 63.5045Z" fill="#F5F2EB"/>
<path d="M172.17 57.7834C172.17 57.7834 176.517 70.6113 172.197 70.6113C168.065 70.6113 172.17 57.7834 172.17 57.7834Z" fill="#F5F2EB"/>
<path d="M128.77 70.3996L127.826 70.6247H140.757L140.18 70.4785C139.456 70.3351 138.789 69.9844 138.261 69.4689C137.732 68.9534 137.364 68.2953 137.202 67.5746L126.01 25.448H123.758L112.572 67.5669C112.382 68.2865 111.996 68.9393 111.458 69.4521C110.919 69.9649 110.248 70.3176 109.521 70.4708L108.867 70.617H116.64L115.623 70.3996C115.272 70.3222 114.941 70.1755 114.648 69.9682C114.356 69.7609 114.107 69.4971 113.918 69.1923C113.728 68.8876 113.602 68.548 113.545 68.1935C113.489 67.839 113.503 67.4768 113.589 67.1281L115.576 59.6231L115.84 58.6262H115.849L116.738 55.3952L122.232 34.6619L127.669 55.1681L128.334 57.6814H128.317L128.816 59.625L130.804 67.1301C130.904 67.479 130.93 67.845 130.879 68.2044C130.829 68.5639 130.704 68.9088 130.512 69.2169C130.321 69.525 130.067 69.7894 129.767 69.9931C129.467 70.1968 129.127 70.3353 128.77 70.3996Z" fill="#F5F2EB"/>
<path d="M191.594 25.448L192.609 25.6674C193.309 25.8135 193.937 26.1968 194.387 26.7525C194.837 27.3081 195.082 28.0022 195.08 28.7175V55.274C195.08 55.3957 195.04 55.514 194.966 55.6101C194.891 55.7062 194.786 55.7743 194.668 55.8036C194.55 55.8329 194.426 55.8217 194.315 55.7717C194.204 55.7217 194.113 55.6359 194.057 55.528L178.308 25.7386C178.262 25.6508 178.193 25.5774 178.108 25.5262C178.024 25.4749 177.927 25.4479 177.828 25.448H168.275L169.294 25.6674C169.993 25.8139 170.62 26.1973 171.07 26.753C171.52 27.3086 171.764 28.0025 171.762 28.7175V50.8902C171.762 51.4868 172.17 53.1995 172.17 53.1995C172.17 53.1995 172.631 51.7331 172.633 50.9172V30.0492C172.634 29.9279 172.675 29.8103 172.75 29.7151C172.825 29.6198 172.93 29.5524 173.047 29.5234C173.165 29.4945 173.289 29.5057 173.4 29.5553C173.51 29.6048 173.601 29.6899 173.658 29.7971L194.938 70.3265C194.984 70.4142 195.053 70.4877 195.137 70.5389C195.222 70.5901 195.319 70.6171 195.418 70.617C195.562 70.617 195.701 70.5597 195.803 70.4575C195.905 70.3554 195.962 70.2169 195.962 70.0724V28.7175C195.96 28.0025 196.205 27.3086 196.654 26.753C197.104 26.1973 197.731 25.8139 198.431 25.6674L199.448 25.448H191.594Z" fill="#F5F2EB"/>
<path d="M239.479 0.384888L226.958 25.4499L239.479 50.5169L252 25.4499L239.479 0.384888ZM239.381 32.2796H234.9L235.207 32.2122C235.417 32.1731 235.606 32.0619 235.742 31.8977C235.879 31.7336 235.953 31.5269 235.953 31.3135V19.6075C235.953 19.3915 235.879 19.182 235.744 19.0142C235.608 18.8463 235.418 18.7304 235.207 18.6857L234.9 18.6203H238.808C241.949 18.6415 242.741 20.4639 242.741 21.7147C242.741 22.5711 242.219 23.9258 240.834 24.3646C242.768 24.6937 244.058 26.0638 244.058 28.0402C244.058 29.2256 243.312 32.2776 239.381 32.2776V32.2796Z" fill="#F5F2EB"/>
<path d="M240.546 24.8245C240.204 24.6513 239.393 24.3685 239.393 24.3685C239.393 24.3685 240.244 23.9836 240.525 23.6487C240.948 23.1272 240.988 22.6038 240.988 21.8071C240.988 19.4574 240.042 18.8878 238.791 18.8878H237.758V31.0961C237.76 31.2187 237.786 31.3397 237.834 31.4524C237.882 31.565 237.952 31.6671 238.04 31.7527C238.127 31.8383 238.231 31.9058 238.345 31.9513C238.458 31.9968 238.58 32.0194 238.702 32.0179H239.385C241.142 32.0179 242.24 30.5688 242.24 28.044C242.23 26.6296 241.609 25.3595 240.546 24.8245Z" fill="#F5F2EB"/>
</g>
<defs>
<clipPath id="clip0_401_454">
<rect width="252" height="71" fill="white"/>
</clipPath>
</defs>
</svg>
